<?xml version="1.0" standalone="no"?>
<!DOCTYPE svg PUBLIC "-//W3C//DTD SVG 20010904//EN"
 "http://www.w3.org/TR/2001/REC-SVG-20010904/DTD/svg10.dtd">
<svg version="1.0" xmlns="http://www.w3.org/2000/svg"
 width="744.000000pt" height="743.000000pt" viewBox="0 0 744.000000 743.000000"
 preserveAspectRatio="xMidYMid meet">

<g transform="translate(0.000000,743.000000) scale(0.100000,-0.100000)"
fill="#ffffff" stroke="none">
<path d="M3450 7230 c-36 -4 -114 -12 -175 -19 -60 -6 -130 -16 -155 -21 -25
-5 -81 -17 -125 -26 -584 -119 -1183 -423 -1625 -823 -673 -611 -1072 -1404
-1155 -2301 -63 -667 64 -1317 375 -1929 550 -1083 1643 -1810 2855 -1900
1040 -78 2030 287 2766 1019 534 532 885 1231 994 1980 182 1253 -331 2523
-1331 3295 -343 265 -780 486 -1184 600 -168 48 -387 92 -517 105 -54 6 -138
15 -188 20 -101 11 -436 11 -535 0z m501 -370 c959 -73 1804 -557 2362 -1353
134 -192 254 -419 347 -659 277 -709 277 -1547 0 -2256 -166 -427 -398 -782
-718 -1100 -326 -323 -669 -547 -1094 -712 -710 -277 -1546 -277 -2256 0 -427
166 -782 398 -1100 718 -323 326 -547 669 -712 1094 -250 642 -276 1395 -69
2059 209 672 633 1249 1222 1662 576 403 1306 601 2018 547z"/>
<path d="M5185 5606 c-33 -7 -152 -34 -265 -59 -236 -53 -489 -100 -810 -151
-255 -41 -603 -86 -657 -86 l-36 0 7 -109 c7 -115 37 -261 61 -297 18 -28 89
-44 190 -44 138 0 139 -16 8 -128 -87 -74 -167 -120 -235 -133 -32 -7 -60 -14
-62 -18 -4 -7 20 -289 29 -340 l6 -34 137 6 c123 6 500 40 577 52 l30 5 -30
-26 c-94 -79 -297 -200 -570 -339 -163 -83 -202 -107 -209 -129 -11 -30 21
-233 55 -349 31 -105 21 -103 413 -80 177 10 332 17 345 14 52 -9 57 -55 66
-562 l5 -306 -108 -7 c-151 -10 -231 -25 -254 -48 -18 -18 -19 -28 -13 -91 9
-94 31 -209 51 -269 17 -51 58 -99 105 -124 44 -22 175 -53 259 -60 218 -19
430 111 469 287 19 84 32 298 45 758 8 254 16 464 18 467 9 8 155 23 293 29
l140 7 65 -106 c36 -58 68 -104 71 -103 11 4 240 252 281 304 50 65 51 59 -74
249 -99 151 -171 245 -266 346 -78 82 -123 112 -157 104 -32 -8 -196 -165
-218 -208 -9 -18 -19 -50 -22 -70 -4 -25 -14 -42 -28 -50 -19 -10 -258 -25
-431 -27 l-58 -1 148 99 c82 54 194 137 249 184 168 142 505 494 505 528 0 13
-91 77 -216 152 -118 71 -146 94 -123 101 8 2 93 20 190 40 194 40 287 67 300
88 22 34 4 123 -68 343 -69 211 -76 218 -208 191z m-352 -717 c-10 -17 -59
-73 -108 -124 -69 -71 -100 -95 -130 -103 -80 -21 -465 -42 -465 -26 0 7 44
57 152 172 l68 72 138 15 c141 15 205 20 305 23 l58 2 -18 -31z"/>
<path d="M1828 5363 c-137 -3 -157 -6 -163 -21 -4 -9 -9 -140 -12 -289 l-6
-273 390 0 c428 0 543 -5 543 -26 0 -7 -28 -55 -62 -106 -102 -153 -221 -258
-292 -258 -16 0 -32 -9 -42 -26 -15 -22 -16 -48 -10 -239 l7 -213 -53 -11
c-29 -6 -132 -24 -228 -41 -227 -40 -250 -47 -250 -68 0 -56 32 -492 41 -570
l12 -94 56 6 c31 3 152 8 270 12 l214 7 -7 -259 c-8 -294 -16 -351 -52 -385
-25 -24 -30 -24 -229 -26 -215 -2 -240 -7 -251 -47 -9 -36 33 -228 62 -291 73
-155 329 -275 583 -275 230 0 403 144 466 389 37 145 47 269 52 673 l5 396
107 47 c141 63 242 113 265 134 17 15 18 27 13 146 -6 116 -31 323 -42 333 -2
2 -88 -2 -190 -9 -222 -15 -215 -18 -215 95 1 92 18 129 115 236 172 191 251
351 305 620 34 168 65 402 57 424 -6 14 -74 16 -654 14 -356 -1 -718 -4 -805
-5z"/>
<path d="M3733 3163 c-56 -65 -318 -381 -452 -546 -61 -76 -63 -79 -50 -109
28 -69 178 -258 204 -258 18 0 207 111 270 158 33 25 125 111 205 191 116 116
153 160 183 217 20 40 37 78 37 86 0 16 -312 328 -328 328 -5 0 -37 -30 -69
-67z"/>
<path d="M4983 3203 c-13 -9 -143 -323 -143 -345 0 -24 85 -122 306 -353 121
-126 246 -258 280 -293 l60 -64 152 253 153 254 -148 145 c-171 168 -289 255
-458 340 -118 60 -178 79 -202 63z"/>
</g>
</svg>
