<svg id="svg" version="1.1" xmlns="http://www.w3.org/2000/svg" xmlns:xlink="http://www.w3.org/1999/xlink" width="400" height="382.94970161977835" viewBox="0, 0, 400,382.94970161977835"><g id="svgg"><path id="path0" d="M89.344 14.360 C 88.906 14.674,88.916 14.701,89.407 14.544 C 89.723 14.443,90.040 14.536,90.111 14.750 C 90.186 14.974,90.336 14.893,90.464 14.561 C 90.718 13.899,90.130 13.794,89.344 14.360 M311.380 14.289 C 311.057 14.494,311.235 14.574,311.947 14.545 C 312.518 14.521,312.912 14.385,312.823 14.242 C 312.611 13.898,311.964 13.919,311.380 14.289 M86.541 25.485 C 84.738 31.067,81.472 41.159,79.285 47.911 C 77.098 54.663,74.737 61.952,74.039 64.109 L 72.769 68.031 44.690 68.201 L 16.611 68.372 37.690 83.717 C 49.283 92.157,59.428 99.523,60.234 100.085 C 62.155 101.426,62.841 98.668,53.197 128.364 C 48.512 142.791,44.724 154.642,44.780 154.698 C 44.836 154.754,54.991 147.438,67.346 138.440 C 79.702 129.442,89.947 122.080,90.113 122.080 C 90.280 122.080,100.551 129.453,112.938 138.465 C 125.325 147.476,135.494 154.804,135.536 154.748 C 135.578 154.692,133.042 146.743,129.901 137.084 C 126.761 127.425,122.924 115.610,121.376 110.827 C 119.828 106.044,118.500 101.959,118.425 101.748 C 118.350 101.537,128.486 93.941,140.948 84.868 L 163.607 68.372 135.573 68.284 L 107.539 68.197 99.018 41.878 C 94.331 27.403,90.345 15.508,90.159 15.447 C 89.973 15.385,88.345 19.902,86.541 25.485 M311.502 16.094 C 311.290 16.802,297.957 58.082,295.663 65.132 L 294.720 68.031 266.650 68.201 L 238.581 68.372 260.376 84.228 C 272.364 92.950,282.556 100.415,283.025 100.819 L 283.878 101.553 281.894 107.639 C 279.639 114.556,277.111 122.322,270.936 141.298 C 268.565 148.585,266.677 154.599,266.741 154.663 C 266.804 154.727,276.963 147.422,289.316 138.430 C 301.669 129.437,311.946 122.090,312.154 122.102 C 312.362 122.114,322.583 129.457,334.868 138.420 C 347.153 147.382,357.250 154.600,357.306 154.458 C 357.363 154.317,353.552 142.336,348.839 127.832 L 340.269 101.463 341.186 100.732 C 341.690 100.330,351.882 92.884,363.835 84.186 L 385.566 68.372 357.512 68.284 L 329.457 68.197 328.074 63.851 C 321.268 42.458,312.378 15.521,312.091 15.426 C 311.897 15.361,311.631 15.661,311.502 16.094 M30.776 66.411 C 38.231 66.462,50.431 66.462,57.886 66.411 C 65.341 66.360,59.241 66.318,44.331 66.318 C 29.420 66.318,23.321 66.360,30.776 66.411 M123.018 66.411 C 130.379 66.462,142.425 66.462,149.787 66.411 C 157.148 66.359,151.125 66.318,136.402 66.318 C 121.679 66.318,115.656 66.359,123.018 66.411 M252.575 66.411 C 259.922 66.462,272.045 66.462,279.514 66.411 C 286.983 66.360,280.972 66.318,266.155 66.318 C 251.338 66.318,245.227 66.359,252.575 66.411 M345.013 66.411 C 352.374 66.462,364.420 66.462,371.782 66.411 C 379.143 66.359,373.120 66.318,358.397 66.318 C 343.674 66.318,337.651 66.359,345.013 66.411 M382.417 73.402 L 381.415 74.510 382.523 73.508 C 383.557 72.575,383.788 72.293,383.525 72.293 C 383.466 72.293,382.968 72.792,382.417 73.402 M24.893 76.833 C 24.893 76.892,25.392 77.390,26.002 77.941 L 27.110 78.943 26.108 77.835 C 25.175 76.802,24.893 76.570,24.893 76.833 M366.048 85.337 L 365.047 86.445 366.155 85.443 C 367.188 84.510,367.420 84.228,367.157 84.228 C 367.098 84.228,366.599 84.727,366.048 85.337 M99.915 131.394 C 99.915 131.453,100.413 131.951,101.023 132.502 L 102.131 133.504 101.130 132.396 C 100.196 131.363,99.915 131.131,99.915 131.394 M72.275 137.681 L 71.100 138.960 72.379 137.785 C 73.569 136.691,73.814 136.402,73.554 136.402 C 73.497 136.402,72.921 136.978,72.275 137.681 M274.659 151.833 L 273.657 152.941 274.766 151.940 C 275.375 151.389,275.874 150.890,275.874 150.831 C 275.874 150.568,275.592 150.800,274.659 151.833 M43.401 153.112 C 43.401 153.956,43.467 154.301,43.548 153.879 C 43.630 153.457,43.630 152.766,43.548 152.344 C 43.467 151.922,43.401 152.268,43.401 153.112 M359.499 153.794 C 359.499 154.450,359.570 154.719,359.655 154.390 C 359.741 154.062,359.741 153.525,359.655 153.197 C 359.570 152.869,359.499 153.137,359.499 153.794 M44.895 156.266 C 44.982 156.407,45.342 156.522,45.695 156.522 C 46.048 156.522,46.408 156.407,46.495 156.266 C 46.582 156.125,46.222 156.010,45.695 156.010 C 45.168 156.010,44.808 156.125,44.895 156.266 M89.815 211.347 C 89.615 211.670,85.728 223.444,81.177 237.511 C 76.626 251.577,72.797 263.199,72.670 263.338 C 72.542 263.477,59.981 263.595,44.758 263.602 C 23.021 263.611,17.117 263.703,17.259 264.032 C 17.359 264.262,27.397 271.662,39.565 280.477 C 51.734 289.292,61.694 296.735,61.700 297.016 C 61.706 297.298,57.883 309.337,53.204 323.769 C 48.525 338.202,44.745 350.059,44.804 350.118 C 44.862 350.176,55.043 342.856,67.427 333.850 C 79.811 324.845,90.028 317.477,90.132 317.477 C 90.236 317.477,100.552 324.918,113.056 334.013 C 125.561 343.109,135.716 350.352,135.623 350.110 C 135.441 349.635,126.732 322.832,121.533 306.742 C 119.027 298.987,118.430 296.776,118.761 296.470 C 118.992 296.256,128.849 289.062,140.665 280.484 C 152.481 271.906,162.451 264.598,162.821 264.243 C 163.481 263.610,162.970 263.598,135.518 263.598 L 107.542 263.598 99.073 237.425 C 90.073 209.614,90.370 210.450,89.815 211.347 M311.760 211.509 C 311.570 211.743,309.921 216.539,308.094 222.165 C 306.268 227.792,302.509 239.378,299.742 247.911 L 294.711 263.427 267.162 263.598 C 249.233 263.709,239.580 263.887,239.519 264.109 C 239.467 264.297,249.326 271.644,261.428 280.438 C 273.530 289.231,283.505 296.613,283.593 296.844 C 283.681 297.074,279.907 309.123,275.206 323.620 C 270.504 338.116,266.709 350.028,266.772 350.091 C 266.835 350.154,277.004 342.844,289.368 333.846 C 301.733 324.848,312.051 317.560,312.296 317.649 C 312.660 317.782,346.280 342.131,355.225 348.741 C 357.528 350.443,357.661 350.497,357.368 349.617 C 356.100 345.811,340.324 296.978,340.324 296.861 C 340.324 296.779,350.375 289.399,362.660 280.461 C 374.945 271.522,384.996 264.071,384.996 263.903 C 384.996 263.726,373.357 263.598,357.231 263.598 L 329.467 263.598 328.945 261.978 C 328.658 261.087,324.886 249.443,320.563 236.101 C 316.240 222.760,312.702 211.673,312.702 211.464 C 312.702 210.955,312.187 210.980,311.760 211.509 M16.255 263.825 C 15.945 264.134,15.966 265.566,16.283 265.761 C 16.424 265.848,16.539 265.397,16.539 264.759 C 16.539 264.120,16.526 263.598,16.510 263.598 C 16.495 263.598,16.380 263.700,16.255 263.825 M250.639 274.958 C 250.639 275.016,251.138 275.515,251.748 276.066 L 252.856 277.067 251.854 275.959 C 250.921 274.926,250.639 274.694,250.639 274.958 M140.303 283.461 L 139.301 284.569 140.409 283.568 C 141.442 282.634,141.674 282.353,141.411 282.353 C 141.352 282.353,140.853 282.852,140.303 283.461 M89.211 320.484 C 89.116 320.638,89.491 320.697,90.044 320.616 C 90.596 320.535,91.049 320.409,91.049 320.336 C 91.049 320.077,89.380 320.211,89.211 320.484 M309.100 322.336 L 308.099 323.444 309.207 322.443 C 309.817 321.892,310.315 321.393,310.315 321.334 C 310.315 321.071,310.034 321.303,309.100 322.336 M80.626 327.110 L 79.625 328.218 80.733 327.217 C 81.766 326.283,81.998 326.002,81.735 326.002 C 81.676 326.002,81.177 326.500,80.626 327.110 M359.499 348.849 C 359.499 349.506,359.570 349.774,359.655 349.446 C 359.741 349.118,359.741 348.581,359.655 348.252 C 359.570 347.924,359.499 348.193,359.499 348.849 M45.098 351.812 C 45.426 351.898,45.963 351.898,46.292 351.812 C 46.620 351.726,46.351 351.656,45.695 351.656 C 45.038 351.656,44.770 351.726,45.098 351.812 M134.101 351.812 C 134.429 351.898,134.966 351.898,135.294 351.812 C 135.622 351.726,135.354 351.656,134.697 351.656 C 134.041 351.656,133.772 351.726,134.101 351.812 M356.095 351.812 C 356.424 351.898,356.961 351.898,357.289 351.812 C 357.617 351.726,357.349 351.656,356.692 351.656 C 356.036 351.656,355.767 351.726,356.095 351.812 " stroke="none" fill="#fc2c2c" fill-rule="evenodd"></path><path id="path1" d="M89.304 14.549 C 88.385 14.794,85.665 21.456,86.158 22.253 C 86.288 22.463,86.217 22.511,85.986 22.368 C 85.739 22.216,85.592 22.378,85.592 22.807 C 85.592 23.182,85.439 23.584,85.251 23.700 C 85.064 23.816,84.910 24.349,84.910 24.885 C 84.910 25.421,84.765 25.911,84.587 25.973 C 84.408 26.036,84.225 26.739,84.179 27.536 C 84.133 28.333,83.997 28.986,83.878 28.986 C 83.540 28.986,82.868 31.444,83.102 31.823 C 83.219 32.011,83.138 32.053,82.917 31.917 C 82.662 31.759,82.523 31.957,82.523 32.478 C 82.523 32.920,82.397 33.428,82.242 33.606 C 81.858 34.048,81.081 36.584,81.202 37.002 C 81.256 37.188,81.038 37.831,80.718 38.431 C 80.398 39.032,80.136 39.828,80.136 40.202 C 80.136 40.575,79.983 40.975,79.795 41.091 C 79.608 41.207,79.454 41.667,79.454 42.114 C 79.454 42.561,79.288 43.030,79.084 43.156 C 78.880 43.282,78.789 43.674,78.881 44.028 C 78.974 44.382,78.901 44.672,78.720 44.672 C 78.539 44.672,78.486 44.825,78.602 45.013 C 78.718 45.200,78.657 45.354,78.467 45.354 C 78.277 45.354,78.029 45.929,77.917 46.633 C 77.804 47.336,77.567 48.178,77.390 48.503 C 77.212 48.829,77.067 49.396,77.067 49.762 C 77.067 50.129,76.901 50.532,76.697 50.658 C 76.493 50.784,76.402 51.176,76.494 51.530 C 76.587 51.884,76.542 52.174,76.394 52.174 C 76.035 52.174,74.994 55.090,74.780 56.694 C 74.685 57.399,74.471 58.060,74.303 58.164 C 74.136 58.267,73.998 58.650,73.998 59.014 C 73.998 59.378,73.827 59.676,73.619 59.676 C 73.391 59.676,73.299 60.085,73.389 60.699 C 73.472 61.262,73.418 61.722,73.271 61.722 C 73.123 61.722,72.812 62.374,72.580 63.171 C 72.347 63.968,71.919 65.050,71.628 65.574 L 71.100 66.528 44.075 66.506 C 24.995 66.491,17.050 66.592,17.050 66.851 C 17.050 67.053,16.914 67.134,16.747 67.031 C 16.580 66.927,16.183 67.239,15.866 67.724 C 15.070 68.938,15.689 70.361,17.531 71.554 C 18.298 72.051,19.003 72.551,19.096 72.665 C 19.435 73.078,20.980 73.800,21.313 73.701 C 21.500 73.646,21.547 73.707,21.417 73.837 C 21.156 74.098,22.281 75.112,24.382 76.510 C 25.132 77.009,26.590 78.100,27.621 78.934 C 28.653 79.767,29.629 80.456,29.791 80.464 C 29.952 80.471,30.841 81.111,31.767 81.886 C 32.692 82.661,34.012 83.581,34.699 83.932 C 35.387 84.283,35.802 84.576,35.622 84.583 C 35.442 84.591,35.754 84.853,36.317 85.166 C 36.880 85.479,37.494 85.690,37.681 85.636 C 37.869 85.581,37.918 85.640,37.791 85.767 C 37.506 86.052,39.354 87.694,40.781 88.424 C 41.361 88.721,42.205 89.353,42.657 89.830 C 43.108 90.306,43.604 90.698,43.758 90.702 C 43.912 90.705,44.270 90.939,44.553 91.222 C 44.836 91.505,45.233 91.635,45.434 91.511 C 45.638 91.384,45.702 91.443,45.578 91.643 C 45.456 91.841,46.108 92.485,47.034 93.079 C 47.957 93.671,48.905 94.388,49.141 94.673 C 49.377 94.958,50.118 95.485,50.787 95.846 C 51.456 96.206,52.532 96.923,53.178 97.440 C 53.824 97.957,54.231 98.150,54.081 97.869 C 53.932 97.587,54.223 97.860,54.729 98.475 C 55.235 99.090,56.211 99.880,56.899 100.231 C 57.587 100.582,58.548 101.266,59.033 101.752 L 59.915 102.634 59.334 104.350 C 59.015 105.294,58.654 106.166,58.533 106.287 C 58.411 106.408,58.312 106.840,58.312 107.246 C 58.312 107.653,58.208 108.089,58.081 108.216 C 57.675 108.623,56.201 112.998,56.024 114.324 C 55.930 115.029,55.716 115.690,55.548 115.794 C 55.380 115.897,55.243 116.348,55.243 116.795 C 55.243 117.241,55.076 117.710,54.872 117.836 C 54.668 117.962,54.577 118.355,54.670 118.709 C 54.762 119.063,54.705 119.352,54.543 119.352 C 54.380 119.352,54.062 120.004,53.835 120.801 C 53.608 121.598,53.295 122.396,53.139 122.575 C 52.984 122.753,52.856 123.221,52.856 123.615 C 52.856 124.009,52.729 124.477,52.574 124.655 C 52.200 125.085,51.476 127.465,51.356 128.658 C 51.304 129.181,51.083 129.787,50.865 130.005 C 50.647 130.223,50.469 130.745,50.469 131.165 C 50.469 131.585,50.315 132.024,50.128 132.140 C 49.940 132.256,49.787 132.700,49.787 133.126 C 49.787 133.553,49.688 134.001,49.566 134.122 C 49.201 134.487,48.105 137.882,48.093 138.684 C 48.087 139.095,47.928 139.526,47.741 139.642 C 47.553 139.758,47.400 140.304,47.400 140.856 C 47.400 141.407,47.264 141.858,47.098 141.858 C 46.821 141.858,46.436 143.199,46.290 144.672 C 46.257 145.000,46.141 145.269,46.031 145.269 C 45.922 145.269,45.637 145.844,45.400 146.547 C 45.162 147.251,44.846 148.133,44.696 148.508 C 42.142 154.931,44.621 158.405,49.052 154.612 C 49.797 153.975,50.515 153.453,50.646 153.453 C 50.778 153.453,51.637 152.823,52.556 152.054 C 54.591 150.351,56.524 149.020,56.963 149.020 C 57.142 149.020,57.289 148.866,57.289 148.679 C 57.289 148.491,57.501 148.338,57.761 148.338 C 58.020 148.338,58.788 147.723,59.466 146.973 C 60.144 146.222,60.699 145.690,60.699 145.791 C 60.699 146.041,61.523 145.519,63.939 143.736 C 65.064 142.906,67.289 141.318,68.883 140.207 C 70.477 139.096,72.154 137.786,72.608 137.295 C 73.063 136.804,73.611 136.402,73.826 136.402 C 74.041 136.402,74.820 135.888,75.557 135.259 C 76.294 134.630,78.058 133.336,79.478 132.384 C 80.898 131.432,82.259 130.412,82.504 130.118 C 82.748 129.823,83.159 129.582,83.418 129.582 C 83.676 129.582,83.887 129.429,83.887 129.241 C 83.887 129.054,84.091 128.900,84.340 128.900 C 84.588 128.900,85.164 128.503,85.618 128.017 C 88.817 124.598,91.789 124.491,94.451 127.698 C 94.689 127.984,95.059 128.218,95.274 128.218 C 95.489 128.218,96.407 128.832,97.315 129.582 C 98.223 130.332,99.093 130.946,99.249 130.946 C 99.405 130.946,100.244 131.562,101.113 132.315 C 101.990 133.073,102.873 133.581,103.095 133.453 C 103.315 133.327,103.391 133.340,103.264 133.481 C 102.974 133.804,104.789 135.358,106.479 136.235 C 107.182 136.600,107.758 137.007,107.758 137.140 C 107.758 137.273,109.024 138.235,110.571 139.278 C 112.118 140.321,113.885 141.644,114.497 142.220 C 115.109 142.795,115.908 143.288,116.273 143.316 C 116.638 143.343,116.873 143.428,116.796 143.505 C 116.719 143.582,117.301 144.156,118.090 144.780 C 118.878 145.404,120.004 146.307,120.592 146.785 C 121.181 147.264,121.833 147.656,122.042 147.656 C 122.250 147.656,122.421 147.809,122.421 147.997 C 122.421 148.184,122.625 148.338,122.873 148.338 C 123.122 148.338,123.685 148.721,124.125 149.189 C 124.565 149.657,124.991 149.973,125.073 149.891 C 125.155 149.810,125.536 150.035,125.919 150.392 C 126.303 150.750,126.770 150.947,126.959 150.831 C 127.147 150.714,127.212 150.762,127.104 150.937 C 126.996 151.112,127.841 151.939,128.981 152.773 C 130.121 153.608,131.260 154.497,131.512 154.749 C 131.763 155.001,131.969 155.095,131.969 154.959 C 131.969 154.822,132.238 154.927,132.566 155.190 C 136.110 158.035,138.739 155.814,137.050 151.402 C 136.657 150.373,136.255 149.184,136.157 148.759 C 136.060 148.334,135.845 147.903,135.680 147.801 C 135.514 147.699,135.379 147.315,135.379 146.949 C 135.379 146.582,135.241 146.016,135.072 145.690 C 134.902 145.364,134.571 144.446,134.335 143.649 C 134.099 142.852,133.768 142.199,133.600 142.199 C 133.431 142.199,133.398 142.030,133.526 141.822 C 133.768 141.431,133.088 138.865,132.592 138.295 C 132.437 138.117,132.310 137.609,132.310 137.167 C 132.310 136.645,132.172 136.448,131.917 136.605 C 131.695 136.743,131.615 136.700,131.733 136.508 C 131.986 136.100,131.362 133.674,131.005 133.674 C 130.867 133.674,130.720 133.259,130.678 132.752 C 130.636 132.244,130.449 131.676,130.262 131.490 C 130.076 131.303,129.923 130.789,129.923 130.346 C 129.923 129.904,129.787 129.626,129.621 129.729 C 129.454 129.832,129.325 129.726,129.333 129.493 C 129.382 128.142,129.209 127.516,128.848 127.739 C 128.606 127.888,128.546 127.833,128.693 127.596 C 128.824 127.383,128.739 126.861,128.503 126.435 C 128.266 126.009,128.118 125.509,128.173 125.323 C 128.286 124.940,127.628 122.555,127.162 121.659 C 126.993 121.333,126.854 120.832,126.854 120.546 C 126.854 120.259,126.712 119.758,126.538 119.433 C 126.101 118.615,125.149 115.419,125.149 114.770 C 125.149 114.477,124.996 114.237,124.808 114.237 C 124.621 114.237,124.467 113.807,124.467 113.282 C 124.467 112.757,124.341 112.182,124.186 112.003 C 124.032 111.825,123.617 110.759,123.264 109.633 C 122.911 108.508,122.500 107.442,122.351 107.263 C 122.202 107.085,122.080 106.596,122.080 106.175 C 122.080 105.755,121.944 105.327,121.778 105.225 C 120.928 104.699,121.228 101.279,122.125 101.279 C 122.819 101.279,124.832 99.548,124.591 99.158 C 124.459 98.944,124.519 98.883,124.732 99.015 C 124.936 99.141,125.197 99.090,125.313 98.902 C 125.429 98.715,126.589 97.928,127.891 97.155 C 129.224 96.363,130.162 95.593,130.038 95.392 C 129.917 95.196,129.975 95.132,130.166 95.250 C 130.357 95.369,130.803 95.147,131.156 94.757 C 131.509 94.367,132.258 93.812,132.821 93.524 C 134.223 92.806,136.063 91.164,135.781 90.882 C 135.654 90.755,135.711 90.702,135.907 90.764 C 136.329 90.898,140.153 88.339,140.153 87.923 C 140.153 87.766,140.269 87.674,140.409 87.717 C 140.658 87.794,142.650 86.442,146.803 83.376 C 147.928 82.545,148.985 81.860,149.152 81.853 C 149.673 81.833,152.375 79.174,152.141 78.912 C 152.018 78.775,152.092 78.762,152.304 78.883 C 152.629 79.069,153.911 78.266,155.748 76.723 C 155.979 76.529,156.285 76.336,156.430 76.293 C 156.574 76.250,156.650 76.088,156.599 75.934 C 156.547 75.779,156.624 75.720,156.769 75.802 C 157.164 76.025,161.480 72.781,161.381 72.336 C 161.334 72.125,161.411 71.970,161.552 71.993 C 162.268 72.106,162.740 71.849,163.842 70.747 C 165.266 69.324,165.342 68.619,164.207 67.395 L 163.367 66.488 136.805 66.500 C 108.348 66.513,109.185 66.555,108.892 65.089 C 108.784 64.550,108.561 64.109,108.397 64.109 C 108.233 64.109,108.099 63.716,108.099 63.236 C 108.099 62.757,107.963 62.448,107.796 62.551 C 107.630 62.654,107.501 62.548,107.509 62.315 C 107.564 60.788,107.381 59.999,107.023 60.220 C 106.782 60.369,106.722 60.314,106.868 60.077 C 107.120 59.669,106.479 57.006,105.995 56.454 C 105.839 56.275,105.712 55.802,105.712 55.402 C 105.712 55.002,105.610 54.573,105.486 54.448 C 105.099 54.062,104.007 50.706,104.007 49.905 C 104.007 49.487,103.853 49.050,103.666 48.934 C 103.478 48.818,103.325 48.358,103.325 47.911 C 103.325 47.465,103.171 47.004,102.984 46.888 C 102.796 46.772,102.643 46.334,102.643 45.913 C 102.643 45.493,102.521 45.003,102.372 44.825 C 102.223 44.647,101.824 43.581,101.485 42.455 C 101.147 41.330,100.732 40.143,100.563 39.817 C 100.394 39.491,100.256 38.848,100.256 38.388 C 100.256 37.928,100.102 37.456,99.915 37.340 C 99.727 37.224,99.574 36.766,99.574 36.321 C 99.574 35.877,99.351 35.290,99.078 35.018 C 98.806 34.746,98.678 34.428,98.794 34.312 C 98.910 34.196,98.841 34.101,98.639 34.101 C 98.438 34.101,98.349 33.811,98.442 33.457 C 98.534 33.103,98.443 32.710,98.239 32.584 C 98.036 32.458,97.869 31.990,97.869 31.543 C 97.869 31.096,97.715 30.636,97.528 30.520 C 97.340 30.404,97.187 29.999,97.187 29.619 C 97.187 28.885,95.672 24.100,95.126 23.108 C 94.946 22.782,94.800 22.044,94.800 21.468 C 94.800 20.892,94.685 20.491,94.544 20.578 C 94.403 20.664,94.255 20.282,94.215 19.729 C 94.074 17.780,91.239 13.677,90.526 14.390 C 90.438 14.478,94.241 26.542,98.977 41.199 L 107.587 67.848 135.806 67.854 C 151.326 67.857,164.020 67.975,164.014 68.116 C 164.009 68.257,153.865 75.737,141.472 84.740 C 129.079 93.743,118.874 101.272,118.792 101.472 C 118.711 101.672,122.545 113.842,127.311 128.517 C 132.077 143.192,135.790 155.126,135.562 155.039 C 135.237 154.914,92.010 123.585,90.505 122.383 C 90.267 122.193,88.717 123.121,86.242 124.933 C 66.846 139.138,44.332 155.410,44.335 155.221 C 44.338 155.092,48.249 142.947,53.026 128.230 C 57.803 113.514,61.599 101.377,61.461 101.258 C 61.107 100.954,43.297 88.003,29.156 77.767 C 22.592 73.016,16.918 68.843,16.548 68.494 C 15.892 67.876,16.578 67.860,44.238 67.860 L 72.601 67.860 76.172 56.863 C 78.137 50.814,81.604 40.111,83.877 33.078 C 86.151 26.044,88.454 18.947,88.994 17.306 C 89.535 15.665,89.950 14.340,89.916 14.362 C 89.883 14.384,89.607 14.468,89.304 14.549 M311.291 14.550 C 310.546 14.748,308.269 19.452,308.269 20.793 C 308.269 21.150,308.116 21.538,307.928 21.654 C 307.741 21.770,307.587 22.384,307.587 23.018 C 307.587 23.652,307.421 24.274,307.217 24.400 C 307.013 24.526,306.922 24.919,307.014 25.273 C 307.107 25.627,307.034 25.916,306.853 25.916 C 306.672 25.916,306.619 26.070,306.735 26.257 C 306.851 26.445,306.790 26.598,306.600 26.598 C 306.410 26.598,306.153 27.137,306.030 27.796 C 305.906 28.454,305.669 29.077,305.503 29.180 C 305.336 29.283,305.200 29.667,305.200 30.033 C 305.200 30.400,305.060 30.966,304.888 31.292 C 304.716 31.618,304.323 32.805,304.015 33.930 C 303.707 35.055,303.311 36.243,303.134 36.568 C 302.958 36.894,302.813 37.460,302.813 37.827 C 302.813 38.193,302.646 38.597,302.443 38.723 C 302.239 38.849,302.146 39.236,302.237 39.583 C 302.328 39.930,302.177 40.400,301.902 40.629 C 301.627 40.857,301.475 41.323,301.564 41.664 C 301.653 42.005,301.594 42.285,301.431 42.285 C 301.269 42.285,300.950 42.937,300.723 43.734 C 300.497 44.531,300.184 45.329,300.028 45.507 C 299.872 45.685,299.744 46.307,299.744 46.888 C 299.744 47.470,299.622 48.091,299.473 48.269 C 298.954 48.888,298.339 51.149,298.582 51.543 C 298.745 51.807,298.676 51.845,298.375 51.659 C 298.051 51.459,297.982 51.534,298.131 51.923 C 298.246 52.221,298.108 52.657,297.825 52.892 C 297.542 53.127,297.381 53.593,297.469 53.928 C 297.556 54.262,297.413 54.714,297.151 54.931 C 296.890 55.149,296.675 55.730,296.675 56.222 C 296.675 56.715,296.365 57.934,295.986 58.930 C 295.607 59.927,295.401 60.910,295.528 61.114 C 295.665 61.337,295.600 61.389,295.364 61.243 C 295.116 61.090,294.970 61.253,294.970 61.682 C 294.970 62.057,294.817 62.459,294.629 62.575 C 294.442 62.691,294.288 63.237,294.288 63.788 C 294.288 64.340,294.135 64.791,293.947 64.791 C 293.760 64.791,293.606 65.082,293.606 65.437 C 293.606 66.506,293.419 66.513,265.803 66.500 C 238.956 66.488,238.022 66.518,238.022 67.385 C 238.022 67.646,237.869 67.860,237.681 67.860 C 237.494 67.860,237.340 68.182,237.340 68.575 C 237.340 69.376,238.568 71.270,239.087 71.270 C 239.272 71.270,239.914 71.739,240.513 72.313 C 241.112 72.886,242.063 73.594,242.626 73.886 C 243.188 74.178,244.032 74.755,244.501 75.167 C 244.970 75.579,245.737 76.176,246.206 76.493 C 246.675 76.810,247.826 77.585,248.764 78.215 C 249.702 78.846,250.841 79.766,251.296 80.261 C 251.750 80.755,252.290 81.159,252.495 81.159 C 252.831 81.159,254.232 82.190,257.336 84.720 C 257.924 85.200,258.576 85.592,258.785 85.592 C 258.994 85.592,259.165 85.729,259.165 85.897 C 259.165 86.064,259.548 86.297,260.017 86.415 C 260.486 86.532,260.870 86.769,260.870 86.941 C 260.870 87.113,262.167 88.126,263.752 89.192 C 265.337 90.257,266.895 91.418,267.215 91.771 C 267.534 92.124,268.011 92.413,268.274 92.413 C 268.538 92.413,268.658 92.566,268.542 92.754 C 268.426 92.941,268.535 93.095,268.784 93.095 C 269.191 93.095,270.488 94.034,273.704 96.656 C 274.292 97.135,274.945 97.528,275.153 97.528 C 275.362 97.528,275.533 97.681,275.533 97.869 C 275.533 98.056,275.704 98.210,275.914 98.210 C 276.124 98.210,276.804 98.632,277.425 99.147 C 278.046 99.663,279.256 100.589,280.113 101.204 C 281.604 102.276,282.105 103.357,281.330 103.836 C 281.142 103.952,280.989 104.391,280.989 104.811 C 280.989 105.232,280.862 105.721,280.707 105.899 C 280.211 106.470,279.531 109.036,279.773 109.427 C 279.901 109.634,279.844 109.804,279.645 109.804 C 279.446 109.804,279.284 110.102,279.284 110.466 C 279.284 110.830,279.130 111.223,278.943 111.338 C 278.755 111.454,278.602 111.915,278.602 112.361 C 278.602 112.808,278.448 113.269,278.261 113.384 C 278.073 113.500,277.920 113.944,277.920 114.371 C 277.920 114.797,277.821 115.246,277.699 115.367 C 277.351 115.715,276.253 119.138,276.408 119.389 C 276.485 119.514,276.320 119.805,276.041 120.037 C 275.761 120.269,275.533 120.887,275.533 121.411 C 275.533 121.936,275.387 122.415,275.209 122.478 C 275.031 122.540,274.847 123.244,274.801 124.041 C 274.755 124.838,274.620 125.490,274.500 125.490 C 274.163 125.490,273.491 127.948,273.725 128.327 C 273.841 128.516,273.760 128.558,273.539 128.421 C 273.281 128.262,273.146 128.478,273.146 129.051 C 273.146 129.531,273.010 129.923,272.843 129.923 C 272.550 129.923,272.176 131.262,271.986 132.992 C 271.935 133.461,271.637 134.336,271.326 134.936 C 271.014 135.536,270.759 136.333,270.759 136.706 C 270.759 137.080,270.605 137.480,270.418 137.596 C 270.230 137.712,270.077 138.151,270.077 138.571 C 270.077 138.991,269.924 139.488,269.738 139.674 C 269.551 139.861,269.364 140.428,269.322 140.936 C 269.280 141.443,269.158 141.858,269.050 141.858 C 268.942 141.858,268.577 142.741,268.238 143.819 C 267.899 144.898,267.484 146.047,267.315 146.372 C 267.146 146.698,267.008 147.237,267.008 147.571 C 267.008 147.904,266.680 149.019,266.280 150.047 C 265.221 152.772,265.127 156.129,266.139 155.117 C 267.062 154.194,283.609 101.444,283.097 101.057 C 282.782 100.819,272.587 93.391,260.443 84.550 C 248.299 75.710,238.363 68.338,238.363 68.168 C 238.363 67.987,249.958 67.860,266.475 67.860 L 294.587 67.860 296.305 62.489 C 297.250 59.535,301.150 47.489,304.971 35.720 C 308.792 23.951,311.903 14.340,311.884 14.362 C 311.865 14.384,311.599 14.468,311.291 14.550 M312.427 14.823 C 312.485 15.069,316.367 27.103,321.055 41.565 L 329.578 67.860 357.798 67.860 C 373.320 67.860,386.012 67.975,386.004 68.116 C 385.996 68.257,375.849 75.737,363.457 84.740 C 351.064 93.743,340.856 101.283,340.773 101.497 C 340.689 101.711,344.150 112.759,348.463 126.049 C 358.452 156.827,358.063 155.584,357.599 155.224 C 357.382 155.055,348.687 148.729,338.278 141.165 C 327.869 133.602,317.716 126.221,315.716 124.763 L 312.081 122.113 289.800 138.328 C 277.546 147.247,267.175 154.797,266.754 155.106 L 265.989 155.669 266.800 156.045 C 267.800 156.508,270.015 155.454,272.964 153.112 C 274.914 151.563,275.271 151.303,279.284 148.504 C 280.503 147.654,282.191 146.435,283.035 145.795 C 283.879 145.155,284.761 144.622,284.996 144.609 C 285.230 144.597,285.422 144.433,285.422 144.246 C 285.422 144.058,285.597 143.905,285.810 143.905 C 286.362 143.905,289.152 141.269,288.884 141.001 C 288.762 140.879,288.815 140.829,289.003 140.891 C 289.485 141.050,292.291 139.249,294.536 137.340 C 295.583 136.449,296.563 135.720,296.713 135.720 C 297.239 135.720,299.573 133.946,299.480 133.616 C 299.429 133.433,299.523 133.367,299.690 133.470 C 299.857 133.574,300.283 133.339,300.636 132.949 C 300.988 132.559,301.738 132.005,302.301 131.717 C 303.494 131.106,305.559 129.372,305.346 129.160 C 305.266 129.080,305.392 129.013,305.627 129.012 C 305.861 129.010,307.069 128.239,308.311 127.297 C 310.556 125.594,312.893 124.224,312.518 124.831 C 312.410 125.006,312.529 125.149,312.783 125.149 C 313.259 125.149,313.656 125.422,316.388 127.621 C 317.261 128.325,318.111 128.900,318.276 128.900 C 318.441 128.900,319.097 129.322,319.734 129.838 C 320.370 130.354,321.409 131.198,322.042 131.714 C 322.675 132.229,323.365 132.651,323.574 132.651 C 323.784 132.651,323.956 132.787,323.956 132.953 C 323.956 133.118,324.224 133.346,324.552 133.459 C 324.881 133.572,325.840 134.211,326.684 134.878 C 327.528 135.546,328.881 136.584,329.691 137.185 C 330.501 137.786,331.651 138.682,332.248 139.175 C 332.845 139.669,333.816 140.360,334.406 140.710 C 334.996 141.060,336.417 142.076,337.564 142.967 C 338.711 143.858,339.801 144.587,339.987 144.587 C 340.172 144.587,340.324 144.740,340.324 144.928 C 340.324 145.115,340.493 145.269,340.700 145.269 C 340.907 145.269,341.844 145.959,342.783 146.803 C 343.722 147.647,344.645 148.338,344.834 148.338 C 345.024 148.338,345.703 148.798,346.344 149.361 C 346.984 149.923,347.673 150.384,347.874 150.384 C 348.075 150.384,348.541 150.767,348.910 151.236 C 349.279 151.705,349.800 152.089,350.067 152.089 C 350.335 152.089,350.554 152.242,350.554 152.430 C 350.554 152.617,350.722 152.771,350.926 152.771 C 351.131 152.771,351.897 153.283,352.628 153.909 C 356.642 157.344,360.070 156.977,359.309 153.193 C 358.825 150.789,358.662 150.154,358.326 149.361 C 357.717 147.922,357.476 147.222,356.860 145.098 C 356.533 143.973,356.132 142.786,355.968 142.460 C 355.804 142.134,355.669 141.578,355.669 141.223 C 355.669 140.868,355.448 140.395,355.178 140.170 C 354.908 139.946,354.773 139.538,354.878 139.263 C 354.984 138.989,354.821 138.489,354.516 138.152 C 354.212 137.816,354.065 137.438,354.191 137.312 C 354.316 137.187,354.231 137.084,354.001 137.084 C 353.771 137.084,353.661 136.959,353.756 136.805 C 353.950 136.490,353.235 133.854,352.850 133.470 C 352.713 133.332,352.600 132.871,352.600 132.444 C 352.600 132.018,352.447 131.574,352.259 131.458 C 352.072 131.342,351.918 130.863,351.918 130.395 C 351.918 129.837,351.782 129.626,351.524 129.785 C 351.283 129.935,351.223 129.879,351.370 129.642 C 351.622 129.234,350.980 126.571,350.497 126.019 C 350.341 125.841,350.213 125.351,350.213 124.931 C 350.213 124.510,350.060 124.072,349.872 123.956 C 349.685 123.840,349.531 123.401,349.531 122.981 C 349.531 122.560,349.400 122.071,349.239 121.893 C 348.840 121.449,347.826 118.188,347.826 117.347 C 347.826 116.972,347.673 116.569,347.485 116.454 C 347.298 116.338,347.144 115.899,347.144 115.479 C 347.144 115.058,347.016 114.569,346.861 114.390 C 346.705 114.212,346.392 113.414,346.165 112.617 C 345.938 111.820,345.620 111.168,345.457 111.168 C 345.295 111.168,345.238 110.878,345.330 110.524 C 345.423 110.170,345.332 109.778,345.128 109.652 C 344.924 109.526,344.757 109.000,344.757 108.484 C 344.757 107.967,344.450 106.910,344.075 106.133 C 343.700 105.357,343.393 104.561,343.393 104.364 C 343.393 104.168,343.250 104.007,343.076 104.007 C 342.887 104.007,342.875 103.602,343.045 103.009 C 343.202 102.461,343.274 101.955,343.205 101.886 C 343.136 101.817,343.648 101.462,344.344 101.097 C 345.040 100.731,345.686 100.349,345.780 100.246 C 346.187 99.800,350.205 96.875,350.940 96.490 C 352.131 95.866,354.615 93.518,354.357 93.260 C 354.235 93.138,354.288 93.082,354.476 93.135 C 355.076 93.307,357.833 91.681,359.542 90.148 C 360.454 89.330,361.413 88.662,361.674 88.662 C 361.935 88.662,362.148 88.431,362.148 88.150 C 362.148 87.869,362.263 87.675,362.404 87.719 C 362.817 87.850,365.783 85.678,366.586 84.656 C 366.993 84.140,367.388 83.755,367.465 83.802 C 367.867 84.048,368.294 83.835,368.083 83.494 C 367.949 83.277,367.988 83.192,368.170 83.304 C 368.617 83.580,370.405 82.375,370.079 82.017 C 369.937 81.860,369.997 81.833,370.213 81.956 C 370.428 82.079,371.080 81.735,371.662 81.192 C 372.244 80.648,372.722 80.304,372.725 80.426 C 372.728 80.548,372.843 80.488,372.980 80.292 C 373.118 80.097,373.949 79.489,374.827 78.942 C 375.704 78.395,376.333 77.802,376.223 77.625 C 376.114 77.448,376.177 77.397,376.363 77.512 C 376.549 77.627,377.167 77.382,377.736 76.968 C 380.742 74.781,382.609 73.263,382.609 73.006 C 382.609 72.847,383.069 72.526,383.632 72.293 C 384.194 72.060,384.655 71.753,384.655 71.610 C 384.655 71.467,384.948 71.273,385.308 71.179 C 387.098 70.711,387.224 67.372,385.476 66.702 C 385.164 66.582,373.036 66.492,358.525 66.502 C 330.418 66.522,330.776 66.543,330.776 64.847 C 330.776 64.329,330.654 63.759,330.505 63.581 C 330.356 63.402,329.945 62.336,329.592 61.211 C 329.239 60.085,328.824 59.019,328.669 58.841 C 328.515 58.662,328.389 58.194,328.389 57.801 C 328.389 57.407,328.261 56.939,328.105 56.760 C 327.949 56.582,327.636 55.784,327.410 54.987 C 327.183 54.190,326.864 53.538,326.702 53.538 C 326.539 53.538,326.482 53.248,326.575 52.894 C 326.667 52.540,326.576 52.148,326.372 52.022 C 326.169 51.896,326.002 51.339,326.002 50.785 C 326.002 50.231,325.867 49.511,325.702 49.185 C 325.130 48.053,323.856 44.154,323.698 43.049 C 323.611 42.438,323.403 41.853,323.236 41.750 C 323.069 41.647,322.933 41.179,322.933 40.710 C 322.933 40.241,322.818 39.929,322.677 40.015 C 322.536 40.102,322.398 39.786,322.369 39.313 C 322.322 38.523,321.599 36.489,320.852 35.043 C 320.683 34.717,320.546 34.133,320.546 33.744 C 320.546 33.355,320.431 33.108,320.290 33.195 C 320.149 33.282,319.994 32.778,319.945 32.075 C 319.895 31.373,319.473 29.824,319.007 28.634 C 318.540 27.443,318.159 26.200,318.159 25.872 C 318.159 25.543,318.005 25.180,317.818 25.064 C 317.630 24.948,317.477 24.546,317.477 24.171 C 317.477 23.796,317.340 23.573,317.174 23.676 C 317.008 23.779,316.878 23.673,316.887 23.440 C 316.942 21.914,316.759 21.124,316.401 21.345 C 316.155 21.498,316.100 21.439,316.255 21.188 C 316.648 20.552,315.600 17.514,314.341 15.642 C 313.687 14.670,312.246 14.053,312.427 14.823 M90.524 210.656 C 90.651 210.985,94.542 222.951,99.171 237.248 L 107.587 263.242 135.615 263.249 C 151.030 263.253,163.715 263.374,163.805 263.519 C 163.894 263.663,153.775 271.197,141.318 280.261 C 128.862 289.326,118.670 296.869,118.670 297.025 C 118.670 297.233,134.936 347.705,135.898 350.483 C 136.110 351.096,137.557 352.122,112.811 334.101 C 100.513 325.145,90.306 317.818,90.129 317.818 C 89.952 317.818,79.613 325.240,67.154 334.312 C 54.695 343.384,44.455 350.767,44.398 350.719 C 44.342 350.671,48.214 338.536,53.004 323.751 C 57.794 308.967,61.600 296.772,61.462 296.653 C 61.036 296.285,17.299 264.468,16.819 264.177 C 16.492 263.980,16.368 264.143,16.368 264.774 C 16.368 265.791,17.571 267.139,18.171 266.795 C 18.399 266.664,18.485 266.669,18.362 266.806 C 18.109 267.089,20.558 269.422,21.780 270.062 C 22.224 270.295,23.508 271.199,24.632 272.071 C 28.289 274.907,30.501 276.546,31.491 277.154 C 32.025 277.481,33.163 278.274,34.020 278.916 C 34.876 279.558,35.460 279.865,35.316 279.598 C 35.172 279.332,35.467 279.615,35.971 280.228 C 36.476 280.842,37.346 281.580,37.906 281.869 C 39.068 282.470,42.845 285.291,43.151 285.786 C 43.263 285.967,43.470 286.044,43.610 285.957 C 43.751 285.870,44.804 286.597,45.951 287.571 C 48.356 289.616,51.167 291.438,51.662 291.275 C 51.850 291.213,51.897 291.269,51.767 291.399 C 51.541 291.624,53.297 293.328,53.700 293.276 C 53.806 293.262,54.081 293.415,54.312 293.615 C 55.964 295.050,58.440 296.636,58.739 296.451 C 58.937 296.329,59.001 296.389,58.880 296.584 C 58.759 296.779,58.888 297.127,59.165 297.358 C 59.707 297.808,59.733 300.159,59.192 299.826 C 59.019 299.719,58.972 299.876,59.086 300.175 C 59.201 300.473,59.073 300.901,58.803 301.125 C 58.533 301.349,58.312 301.889,58.312 302.323 C 58.312 302.758,58.159 303.209,57.971 303.325 C 57.783 303.441,57.630 303.885,57.630 304.311 C 57.630 304.738,57.531 305.186,57.409 305.307 C 57.044 305.672,55.948 309.067,55.936 309.869 C 55.930 310.280,55.772 310.711,55.584 310.827 C 55.396 310.943,55.243 311.463,55.243 311.984 C 55.243 312.504,55.138 313.035,55.009 313.164 C 54.580 313.593,53.913 315.892,54.121 316.228 C 54.234 316.411,54.149 316.450,53.932 316.316 C 53.570 316.092,53.397 316.718,53.446 318.070 C 53.454 318.302,53.325 318.408,53.158 318.305 C 52.992 318.202,52.856 318.590,52.856 319.166 C 52.856 319.742,52.712 320.480,52.536 320.806 C 51.966 321.862,50.469 326.170,50.469 326.756 C 50.469 327.069,50.315 327.420,50.128 327.536 C 49.940 327.652,49.787 328.266,49.787 328.900 C 49.787 329.535,49.620 330.157,49.416 330.283 C 49.212 330.409,49.112 330.768,49.194 331.080 C 49.276 331.393,49.138 331.840,48.887 332.074 C 48.636 332.308,48.343 332.918,48.236 333.428 C 48.128 333.939,47.896 334.623,47.720 334.948 C 47.544 335.274,47.400 335.841,47.400 336.207 C 47.400 336.574,47.233 336.977,47.029 337.103 C 46.825 337.229,46.734 337.621,46.827 337.975 C 46.919 338.329,46.876 338.619,46.732 338.619 C 46.358 338.619,45.013 342.434,45.013 343.493 C 45.013 343.979,44.859 344.471,44.672 344.587 C 44.484 344.702,44.331 345.163,44.331 345.610 C 44.331 346.056,44.164 346.525,43.960 346.651 C 43.756 346.777,43.665 347.170,43.758 347.524 C 43.850 347.878,43.803 348.167,43.654 348.167 C 43.143 348.167,42.902 349.962,43.373 350.261 C 43.619 350.416,43.666 350.551,43.478 350.560 C 43.291 350.569,43.435 350.801,43.799 351.076 C 44.930 351.932,46.820 351.706,48.121 350.560 C 48.756 350.000,49.414 349.540,49.583 349.537 C 49.909 349.531,51.956 348.072,54.323 346.157 C 55.110 345.521,56.598 344.447,57.630 343.770 C 58.662 343.094,59.557 342.425,59.619 342.285 C 59.682 342.144,59.895 342.029,60.093 342.029 C 60.290 342.029,61.101 341.454,61.894 340.750 C 63.452 339.369,66.074 337.504,66.231 337.667 C 66.284 337.721,66.901 337.244,67.603 336.606 C 68.304 335.967,69.168 335.277,69.522 335.071 C 70.885 334.281,74.217 331.845,74.651 331.323 C 74.900 331.022,75.316 330.776,75.575 330.776 C 75.833 330.776,76.044 330.622,76.044 330.435 C 76.044 330.247,76.216 330.094,76.426 330.094 C 76.635 330.094,77.322 329.672,77.951 329.156 C 80.248 327.274,84.094 324.379,85.540 323.444 C 85.830 323.257,86.229 322.996,86.426 322.865 C 86.624 322.733,87.418 322.081,88.191 321.415 C 90.001 319.856,90.250 319.880,93.061 321.885 C 94.356 322.810,95.521 323.462,95.648 323.335 C 95.775 323.207,95.828 323.318,95.766 323.581 C 95.703 323.844,96.189 324.412,96.846 324.844 C 98.412 325.874,100.358 327.309,101.768 328.474 C 102.392 328.990,103.075 329.412,103.285 329.412 C 103.494 329.412,103.666 329.565,103.666 329.753 C 103.666 329.940,103.837 330.094,104.047 330.094 C 104.257 330.094,104.927 330.516,105.536 331.032 C 106.506 331.854,109.089 333.706,112.635 336.123 C 113.687 336.840,115.433 338.202,118.033 340.332 C 118.714 340.890,119.443 341.347,119.653 341.347 C 119.863 341.347,120.034 341.500,120.034 341.688 C 120.034 341.876,120.245 342.029,120.504 342.029 C 120.762 342.029,121.170 342.266,121.410 342.555 C 121.650 342.844,123.108 343.929,124.650 344.965 C 126.192 346.002,127.885 347.300,128.411 347.850 C 128.938 348.399,129.570 348.849,129.817 348.849 C 130.063 348.849,130.264 349.003,130.264 349.190 C 130.264 349.378,130.436 349.531,130.646 349.531 C 130.855 349.531,131.551 349.991,132.192 350.554 C 133.771 351.941,135.664 351.976,136.900 350.643 C 137.797 349.676,138.018 348.704,137.425 348.338 C 137.238 348.222,137.079 347.791,137.073 347.380 C 137.061 346.578,135.965 343.183,135.600 342.818 C 135.479 342.697,135.379 342.248,135.379 341.822 C 135.379 341.395,135.226 340.951,135.038 340.835 C 134.851 340.720,134.697 340.269,134.697 339.834 C 134.697 339.399,134.469 338.854,134.190 338.622 C 133.910 338.390,133.766 338.065,133.869 337.898 C 133.972 337.732,133.907 337.596,133.726 337.596 C 133.545 337.596,133.473 337.306,133.565 336.952 C 133.658 336.598,133.567 336.206,133.363 336.080 C 133.159 335.954,132.992 335.495,132.992 335.060 C 132.992 334.625,132.778 334.091,132.516 333.874 C 132.254 333.657,132.114 333.195,132.205 332.848 C 132.295 332.501,132.203 332.114,131.999 331.988 C 131.795 331.862,131.628 331.466,131.628 331.109 C 131.628 330.370,130.751 327.495,130.254 326.603 C 130.072 326.277,129.923 325.711,129.923 325.344 C 129.923 324.978,129.770 324.583,129.582 324.467 C 129.395 324.351,129.241 323.976,129.241 323.634 C 129.241 323.291,129.012 322.571,128.732 322.034 C 128.452 321.497,128.222 320.719,128.220 320.306 C 128.219 319.893,128.046 319.125,127.835 318.601 C 127.275 317.208,127.031 316.531,126.204 314.066 C 125.795 312.847,125.330 311.804,125.170 311.748 C 125.011 311.692,124.954 311.365,125.045 311.020 C 125.135 310.675,125.042 310.289,124.838 310.163 C 124.634 310.037,124.467 309.611,124.467 309.217 C 124.467 308.462,122.297 301.701,121.730 300.687 C 121.547 300.361,121.398 299.853,121.398 299.558 C 121.398 299.263,121.255 299.111,121.079 299.219 C 120.468 299.597,121.381 297.193,122.061 296.632 C 122.431 296.327,122.663 295.982,122.577 295.865 C 122.491 295.748,122.517 295.723,122.635 295.809 C 122.989 296.069,125.904 294.301,127.423 292.904 C 128.205 292.185,129.669 291.132,130.677 290.563 C 131.685 289.994,132.954 289.065,133.497 288.499 C 134.040 287.932,134.685 287.468,134.932 287.468 C 135.178 287.468,135.379 287.315,135.379 287.127 C 135.379 286.939,135.550 286.786,135.759 286.786 C 136.128 286.786,136.474 286.528,140.241 283.449 C 142.523 281.584,142.643 281.493,143.052 281.311 C 143.240 281.228,143.351 281.033,143.299 280.878 C 143.248 280.724,143.351 280.687,143.528 280.796 C 143.705 280.906,144.937 280.189,146.264 279.202 C 147.591 278.216,149.456 276.871,150.407 276.215 C 153.230 274.267,154.800 272.903,154.545 272.620 C 154.413 272.474,154.479 272.454,154.691 272.575 C 154.903 272.696,155.653 272.337,156.358 271.777 C 157.062 271.217,157.762 270.759,157.913 270.759 C 158.064 270.759,159.064 269.991,160.136 269.054 C 161.207 268.116,162.266 267.349,162.490 267.349 C 162.966 267.349,163.968 266.301,164.530 265.215 C 165.278 263.771,163.876 262.234,161.811 262.234 C 161.362 262.234,160.900 262.080,160.784 261.893 C 160.509 261.446,154.374 261.449,153.928 261.895 C 153.702 262.121,146.034 262.208,131.622 262.151 L 109.659 262.063 109.165 261.040 C 108.893 260.477,108.542 259.751,108.385 259.425 C 108.227 259.099,108.099 258.554,108.099 258.214 C 108.099 257.874,107.971 257.450,107.815 257.272 C 107.659 257.094,107.346 256.296,107.120 255.499 C 106.893 254.702,106.587 254.049,106.439 254.049 C 106.292 254.049,106.236 253.607,106.315 253.067 C 106.395 252.526,106.291 251.980,106.086 251.853 C 105.880 251.726,105.712 251.257,105.712 250.810 C 105.712 250.363,105.576 249.914,105.410 249.811 C 105.244 249.709,105.027 249.201,104.927 248.683 C 104.696 247.481,103.179 243.218,102.874 242.914 C 102.747 242.787,102.643 242.289,102.643 241.809 C 102.643 240.987,101.276 236.851,100.576 235.554 C 100.400 235.229,100.256 234.509,100.256 233.955 C 100.256 233.401,100.102 232.852,99.915 232.737 C 99.727 232.621,99.574 232.142,99.574 231.673 C 99.574 231.116,99.438 230.905,99.180 231.064 C 98.962 231.199,98.878 231.159,98.992 230.975 C 99.211 230.621,98.537 228.006,98.119 227.587 C 97.981 227.450,97.869 226.988,97.869 226.562 C 97.869 226.135,97.715 225.691,97.528 225.575 C 97.340 225.460,97.187 225.058,97.187 224.683 C 97.187 224.254,97.040 224.091,96.793 224.244 C 96.557 224.390,96.492 224.338,96.629 224.115 C 96.756 223.910,96.549 222.928,96.171 221.931 C 95.792 220.935,95.482 219.716,95.482 219.223 C 95.482 218.731,95.267 218.149,95.005 217.932 C 94.743 217.715,94.610 217.225,94.710 216.845 C 94.810 216.464,94.728 215.818,94.528 215.408 C 94.328 214.998,93.997 214.113,93.793 213.441 C 93.307 211.847,91.811 210.060,90.963 210.060 C 90.465 210.060,90.353 210.213,90.524 210.656 M312.467 210.524 C 312.565 210.779,316.455 222.749,321.112 237.122 L 329.579 263.257 357.799 263.257 C 373.320 263.257,386.014 263.372,386.009 263.512 C 386.004 263.653,375.858 271.134,363.463 280.136 C 351.068 289.139,340.859 296.678,340.775 296.891 C 340.598 297.341,357.626 350.162,358.167 350.841 C 358.466 351.215,358.612 351.188,358.976 350.690 C 359.557 349.896,359.547 347.630,358.960 347.082 C 358.707 346.846,358.567 346.397,358.649 346.084 C 358.731 345.772,358.631 345.413,358.427 345.287 C 358.223 345.161,358.056 344.692,358.056 344.246 C 358.056 343.799,357.903 343.338,357.715 343.223 C 357.528 343.107,357.374 342.719,357.374 342.361 C 357.374 341.774,356.760 340.104,355.969 338.538 C 355.804 338.213,355.669 337.646,355.669 337.280 C 355.669 336.913,355.516 336.518,355.328 336.402 C 355.141 336.286,354.987 335.826,354.987 335.379 C 354.987 334.933,354.834 334.472,354.646 334.356 C 354.459 334.240,354.305 333.853,354.305 333.496 C 354.305 332.757,353.428 329.882,352.930 328.990 C 352.749 328.664,352.600 328.098,352.600 327.731 C 352.600 327.365,352.447 326.970,352.259 326.854 C 352.072 326.738,351.918 326.338,351.918 325.965 C 351.918 325.591,351.658 324.795,351.341 324.194 C 351.023 323.594,350.802 322.773,350.850 322.368 C 350.897 321.964,350.773 321.533,350.574 321.411 C 350.376 321.288,350.213 320.822,350.213 320.375 C 350.213 319.928,350.060 319.468,349.872 319.352 C 349.685 319.236,349.531 318.758,349.531 318.289 C 349.531 317.731,349.395 317.520,349.137 317.680 C 348.903 317.824,348.836 317.774,348.972 317.554 C 349.184 317.210,348.188 313.944,347.467 312.622 C 347.289 312.296,347.144 311.500,347.144 310.852 C 347.144 310.204,346.991 309.579,346.803 309.463 C 346.616 309.347,346.462 308.945,346.462 308.570 C 346.462 308.195,346.326 307.972,346.160 308.075 C 345.993 308.178,345.871 308.072,345.889 307.839 C 345.952 307.001,345.356 304.859,345.060 304.859 C 344.893 304.859,344.757 304.408,344.757 303.856 C 344.757 303.305,344.604 302.759,344.416 302.643 C 344.228 302.527,344.075 302.125,344.075 301.750 C 344.075 301.375,343.960 301.139,343.819 301.226 C 343.553 301.390,343.368 300.419,343.276 298.384 C 343.225 297.256,343.372 297.092,346.121 295.208 C 347.715 294.115,348.981 293.078,348.934 292.902 C 348.887 292.727,348.964 292.613,349.105 292.650 C 349.643 292.791,353.835 289.951,355.451 288.351 C 356.381 287.430,357.014 286.893,356.858 287.157 C 356.663 287.490,356.777 287.467,357.230 287.083 C 357.591 286.777,358.423 286.256,359.079 285.923 C 359.736 285.591,361.103 284.581,362.117 283.679 C 363.131 282.776,364.090 282.118,364.248 282.216 C 364.406 282.313,364.541 282.269,364.547 282.117 C 364.553 281.966,365.616 281.079,366.908 280.147 C 368.200 279.215,369.203 278.365,369.137 278.257 C 369.070 278.149,369.308 278.039,369.665 278.012 C 370.023 277.986,370.739 277.570,371.258 277.089 C 371.777 276.608,372.327 276.215,372.480 276.215 C 372.634 276.215,372.650 276.038,372.516 275.821 C 372.373 275.588,372.422 275.520,372.638 275.653 C 372.839 275.777,373.514 275.456,374.140 274.939 C 375.432 273.871,375.262 274.001,378.052 271.953 C 379.203 271.109,380.252 270.418,380.382 270.418 C 380.513 270.418,381.129 269.919,381.751 269.309 C 382.374 268.700,383.503 267.787,384.262 267.280 C 387.645 265.019,387.176 262.234,383.413 262.234 C 382.805 262.234,382.213 262.080,382.097 261.893 C 381.757 261.342,375.733 261.486,374.971 262.063 C 374.615 262.332,374.196 262.473,374.039 262.377 C 373.882 262.280,364.391 262.209,352.947 262.220 C 331.344 262.240,330.776 262.205,330.776 260.852 C 330.776 260.558,330.392 259.338,329.923 258.142 C 329.454 256.945,329.071 255.535,329.071 255.008 C 329.071 254.481,328.917 254.049,328.730 254.049 C 328.542 254.049,328.389 253.598,328.389 253.047 C 328.389 252.495,328.235 251.949,328.048 251.833 C 327.860 251.717,327.707 251.315,327.707 250.940 C 327.707 250.565,327.592 250.329,327.451 250.416 C 327.310 250.503,327.174 250.216,327.148 249.780 C 327.121 249.343,326.853 248.490,326.551 247.884 C 326.249 247.279,326.002 246.433,326.002 246.004 C 326.002 245.575,325.848 245.129,325.661 245.013 C 325.473 244.897,325.320 244.381,325.320 243.867 C 325.320 242.885,324.626 241.098,324.243 241.094 C 324.120 241.092,324.095 240.802,324.188 240.448 C 324.280 240.094,324.189 239.701,323.985 239.575 C 323.781 239.449,323.615 238.980,323.615 238.534 C 323.615 238.087,323.461 237.627,323.274 237.511 C 323.086 237.395,322.933 236.803,322.933 236.195 C 322.933 235.587,322.811 234.944,322.662 234.766 C 322.513 234.587,322.101 233.521,321.747 232.396 C 321.393 231.270,320.939 230.134,320.739 229.871 C 320.539 229.608,320.421 229.123,320.477 228.793 C 320.533 228.463,320.417 228.094,320.221 227.973 C 320.024 227.851,319.864 227.396,319.864 226.961 C 319.864 226.526,319.635 225.981,319.356 225.749 C 319.077 225.517,318.932 225.192,319.035 225.025 C 319.138 224.859,319.074 224.723,318.893 224.723 C 318.712 224.723,318.639 224.433,318.732 224.079 C 318.824 223.725,318.733 223.333,318.529 223.207 C 318.325 223.081,318.159 222.459,318.159 221.824 C 318.159 221.190,318.005 220.576,317.818 220.460 C 317.630 220.344,317.477 219.884,317.477 219.437 C 317.477 218.991,317.323 218.530,317.136 218.414 C 316.948 218.298,316.795 217.911,316.795 217.554 C 316.795 216.036,315.061 211.736,314.036 210.711 C 313.281 209.957,312.199 209.828,312.467 210.524 M88.167 211.541 C 87.689 212.168,87.298 212.982,87.298 213.348 C 87.298 213.715,87.157 214.161,86.985 214.339 C 86.814 214.517,86.624 215.200,86.564 215.857 C 86.504 216.513,86.260 217.253,86.023 217.501 C 85.786 217.749,85.592 218.315,85.592 218.760 C 85.592 219.204,85.439 219.662,85.251 219.778 C 85.064 219.894,84.910 220.333,84.910 220.753 C 84.910 221.174,84.784 221.663,84.630 221.841 C 84.475 222.020,84.060 223.086,83.707 224.211 C 83.354 225.337,82.943 226.403,82.794 226.581 C 82.645 226.760,82.523 227.249,82.523 227.670 C 82.523 228.090,82.370 228.529,82.182 228.645 C 81.995 228.760,81.841 229.374,81.841 230.009 C 81.841 230.643,81.675 231.265,81.471 231.391 C 81.267 231.517,81.176 231.910,81.268 232.264 C 81.361 232.617,81.322 232.907,81.182 232.907 C 81.042 232.907,80.723 233.559,80.473 234.356 C 80.223 235.153,79.891 235.951,79.736 236.130 C 79.581 236.308,79.454 236.776,79.454 237.170 C 79.454 237.564,79.327 238.032,79.171 238.210 C 78.688 238.762,78.046 241.425,78.298 241.833 C 78.444 242.070,78.384 242.125,78.143 241.976 C 77.886 241.817,77.749 242.028,77.749 242.585 C 77.749 243.054,77.596 243.533,77.408 243.649 C 77.221 243.765,77.067 244.159,77.067 244.526 C 77.067 244.893,76.933 245.459,76.768 245.785 C 76.121 247.064,74.908 250.877,74.762 252.091 C 74.678 252.795,74.471 253.457,74.303 253.560 C 74.136 253.664,73.998 254.049,73.998 254.415 C 73.998 254.782,73.861 255.348,73.692 255.674 C 72.945 257.120,72.222 259.154,72.174 259.944 C 72.146 260.417,72.008 260.733,71.867 260.646 C 71.726 260.559,71.611 260.662,71.611 260.874 C 71.611 262.252,71.522 262.257,50.741 262.087 C 39.807 261.998,29.114 261.831,26.979 261.716 C 24.416 261.578,22.973 261.631,22.733 261.870 C 22.533 262.070,21.442 262.237,20.307 262.241 C 18.884 262.246,18.006 262.432,17.478 262.838 C 16.752 263.397,18.123 263.423,44.659 263.338 L 72.605 263.249 75.842 253.278 C 77.623 247.794,81.404 236.172,84.243 227.451 C 87.083 218.730,89.487 211.326,89.585 210.997 C 89.878 210.020,89.100 210.318,88.167 211.541 M310.209 211.357 C 309.705 211.883,309.292 212.655,309.292 213.073 C 309.292 213.491,309.063 214.381,308.783 215.051 C 308.503 215.722,308.348 216.390,308.438 216.536 C 308.529 216.683,308.374 216.992,308.095 217.224 C 307.816 217.456,307.587 218.087,307.587 218.627 C 307.587 219.166,307.451 219.608,307.284 219.608 C 306.988 219.608,306.392 221.750,306.456 222.588 C 306.473 222.820,306.325 222.910,306.127 222.788 C 305.906 222.651,305.847 222.774,305.975 223.108 C 306.089 223.406,305.962 223.834,305.692 224.058 C 305.421 224.282,305.200 224.821,305.200 225.256 C 305.200 225.691,305.047 226.142,304.859 226.257 C 304.672 226.373,304.518 226.881,304.518 227.386 C 304.518 227.891,304.208 229.119,303.829 230.115 C 303.451 231.112,303.244 232.095,303.371 232.299 C 303.508 232.522,303.443 232.574,303.207 232.428 C 302.973 232.284,302.813 232.403,302.813 232.721 C 302.813 233.016,302.675 233.524,302.506 233.849 C 302.042 234.742,301.381 237.130,301.492 237.514 C 301.546 237.700,301.355 238.312,301.068 238.875 C 300.782 239.437,300.349 240.588,300.107 241.432 C 299.865 242.276,299.543 243.274,299.392 243.649 C 298.239 246.509,297.357 249.259,297.357 249.993 C 297.357 250.474,297.253 250.971,297.126 251.098 C 296.810 251.414,295.266 255.763,295.169 256.607 C 295.126 256.982,294.911 257.624,294.690 258.034 C 294.469 258.444,294.288 259.110,294.288 259.516 C 294.288 259.921,293.968 260.702,293.578 261.250 L 292.867 262.248 270.816 262.107 C 258.687 262.030,247.954 261.858,246.964 261.725 C 245.705 261.557,245.008 261.614,244.646 261.914 C 244.343 262.166,243.320 262.323,242.183 262.293 C 240.634 262.252,237.419 263.180,238.875 263.248 C 240.696 263.334,294.440 263.219,294.529 263.129 C 294.595 263.063,298.402 251.441,302.990 237.302 C 307.578 223.163,311.420 211.326,311.528 210.997 C 311.819 210.116,311.249 210.271,310.209 211.357 M238.186 264.290 C 237.830 264.867,238.699 266.619,239.461 266.861 C 239.836 266.980,240.725 267.603,241.436 268.245 C 243.286 269.917,247.633 272.806,247.978 272.593 C 248.138 272.494,248.227 272.601,248.176 272.831 C 248.124 273.061,248.619 273.599,249.275 274.026 C 250.404 274.761,251.960 275.961,254.776 278.269 C 255.458 278.827,256.187 279.284,256.396 279.284 C 256.606 279.284,256.777 279.437,256.777 279.625 C 256.777 279.812,256.989 279.966,257.247 279.966 C 257.506 279.966,257.907 280.195,258.139 280.474 C 258.371 280.753,259.732 281.771,261.164 282.736 C 262.596 283.700,264.152 284.834,264.621 285.256 C 265.090 285.678,265.883 286.233,266.383 286.490 C 267.210 286.914,268.791 288.080,273.951 292.072 C 274.921 292.822,276.821 294.188,278.175 295.107 C 281.514 297.375,281.884 297.812,281.384 298.909 C 281.167 299.386,280.989 300.144,280.989 300.593 C 280.989 301.043,280.665 301.959,280.269 302.630 C 279.873 303.302,279.629 304.154,279.726 304.525 C 279.823 304.897,279.788 305.200,279.648 305.200 C 279.508 305.200,279.200 305.853,278.964 306.650 C 278.728 307.447,278.397 308.365,278.228 308.691 C 278.058 309.017,277.920 309.518,277.920 309.804 C 277.920 310.090,277.785 310.591,277.620 310.917 C 276.726 312.687,276.215 314.200,276.215 315.081 C 276.215 315.626,276.061 316.167,275.874 316.283 C 275.686 316.399,275.533 316.838,275.533 317.258 C 275.533 317.678,275.406 318.168,275.252 318.346 C 275.098 318.524,274.683 319.591,274.330 320.716 C 273.977 321.841,273.566 322.908,273.417 323.086 C 273.268 323.264,273.146 323.688,273.146 324.028 C 273.146 324.369,273.007 324.913,272.838 325.239 C 272.467 325.954,271.806 328.264,271.668 329.331 C 271.613 329.756,271.386 330.285,271.163 330.508 C 270.941 330.730,270.759 331.256,270.759 331.676 C 270.759 332.097,270.605 332.535,270.418 332.651 C 270.230 332.767,270.077 333.206,270.077 333.626 C 270.077 334.047,269.950 334.536,269.795 334.714 C 269.267 335.322,268.627 337.863,268.893 338.294 C 269.077 338.592,269.022 338.639,268.712 338.448 C 268.379 338.242,268.313 338.357,268.453 338.894 C 268.561 339.307,268.438 339.787,268.166 340.012 C 267.904 340.230,267.690 340.698,267.690 341.052 C 267.690 341.407,267.555 341.964,267.390 342.289 C 265.520 345.988,264.991 349.437,266.111 350.644 C 266.981 351.583,269.054 351.986,269.054 351.216 C 269.054 351.017,269.190 350.939,269.356 351.042 C 269.522 351.145,269.848 351.000,270.080 350.721 C 270.312 350.442,270.647 350.213,270.825 350.213 C 271.003 350.213,271.352 350.021,271.601 349.787 C 271.849 349.552,272.769 348.824,273.645 348.167 C 274.521 347.511,275.726 346.586,276.323 346.112 C 276.920 345.639,277.845 345.029,278.379 344.758 C 278.913 344.487,279.713 343.834,280.157 343.307 C 280.600 342.780,281.046 342.392,281.147 342.444 C 281.247 342.497,281.829 342.145,282.438 341.661 C 284.008 340.415,287.084 338.278,287.308 338.278 C 287.510 338.278,287.507 338.280,289.886 336.325 C 291.341 335.129,292.447 334.310,295.205 332.387 C 298.761 329.905,300.417 328.690,300.901 328.206 C 301.203 327.905,301.449 327.765,301.449 327.896 C 301.449 328.027,302.119 327.540,302.938 326.812 C 303.757 326.085,305.089 325.107,305.898 324.638 C 306.708 324.169,308.080 323.164,308.947 322.405 C 311.632 320.055,312.407 319.898,314.116 321.362 C 314.907 322.038,315.697 322.592,315.873 322.592 C 316.049 322.592,316.698 323.014,317.316 323.529 C 317.934 324.045,318.999 324.851,319.683 325.320 C 320.367 325.789,321.137 326.364,321.394 326.598 C 321.651 326.833,321.964 327.025,322.091 327.025 C 322.217 327.025,323.089 327.715,324.028 328.559 C 324.966 329.403,325.910 330.096,326.124 330.099 C 326.338 330.102,327.033 330.563,327.668 331.122 C 328.303 331.682,328.971 332.140,329.153 332.140 C 329.335 332.140,329.786 332.523,330.155 332.992 C 330.524 333.461,331.044 333.845,331.312 333.845 C 331.580 333.845,331.799 333.962,331.799 334.105 C 331.799 334.248,332.085 334.517,332.435 334.702 C 333.043 335.023,336.975 337.865,337.837 338.606 C 338.064 338.801,338.348 338.960,338.469 338.960 C 338.590 338.960,339.457 339.650,340.396 340.494 C 341.335 341.338,342.309 342.029,342.560 342.029 C 342.812 342.029,343.141 342.229,343.291 342.472 C 343.638 343.036,345.780 344.543,345.780 344.223 C 345.780 344.091,346.098 344.387,346.487 344.882 C 346.876 345.376,347.342 345.780,347.524 345.780 C 347.706 345.780,348.040 345.931,348.267 346.117 C 348.493 346.302,349.513 347.146,350.534 347.992 C 351.554 348.839,352.502 349.531,352.641 349.531 C 352.779 349.531,353.095 349.729,353.343 349.971 C 354.753 351.349,358.056 352.282,358.056 351.303 C 358.056 350.452,312.276 317.748,311.564 318.090 C 311.159 318.285,300.853 325.718,288.662 334.609 C 276.471 343.499,266.458 350.685,266.411 350.578 C 266.364 350.471,270.229 338.340,275.000 323.621 C 279.770 308.902,283.645 296.835,283.610 296.805 C 283.575 296.776,274.109 289.886,262.575 281.495 C 251.040 273.104,240.886 265.716,240.009 265.078 C 238.987 264.335,238.333 264.052,238.186 264.290 " stroke="none" fill="#fc8346" fill-rule="evenodd"></path><path id="path2" d="M30.094 68.116 C 37.924 68.167,50.737 68.167,58.568 68.116 C 66.398 68.065,59.991 68.023,44.331 68.023 C 28.670 68.023,22.263 68.065,30.094 68.116 M117.647 68.110 C 143.917 68.345,164.024 68.348,164.024 68.116 C 164.024 67.975,151.326 67.896,135.806 67.940 C 120.286 67.984,112.114 68.061,117.647 68.110 M252.455 68.116 C 260.300 68.167,273.036 68.167,280.759 68.116 C 288.481 68.065,282.063 68.023,266.496 68.023 C 250.929 68.023,244.611 68.065,252.455 68.116 M339.301 68.110 C 365.554 68.345,386.019 68.348,386.019 68.116 C 386.019 67.975,373.244 67.896,357.630 67.940 C 342.016 67.984,333.768 68.061,339.301 68.110 M16.937 263.484 C 16.812 263.609,16.712 263.878,16.715 264.081 C 16.718 264.301,16.828 264.279,16.989 264.026 C 17.200 263.694,23.335 263.582,45.032 263.512 L 72.805 263.423 44.984 263.340 C 29.683 263.294,17.062 263.359,16.937 263.484 M117.647 263.507 C 143.917 263.742,163.944 263.744,163.801 263.512 C 163.714 263.372,151.030 263.293,135.615 263.337 C 120.200 263.381,112.114 263.457,117.647 263.507 M253.112 263.512 C 260.754 263.563,273.261 263.563,280.904 263.512 C 288.546 263.461,282.293 263.419,267.008 263.419 C 251.722 263.419,245.469 263.461,253.112 263.512 M339.642 263.507 C 365.912 263.742,386.019 263.744,386.019 263.512 C 386.019 263.372,373.321 263.293,357.801 263.337 C 342.280 263.381,334.109 263.457,339.642 263.507 " stroke="none" fill="#fc5437" fill-rule="evenodd"></path><path id="path3" d="" stroke="none" fill="#fc3d34" fill-rule="evenodd"></path><path id="path4" d="" stroke="none" fill="#fc342c" fill-rule="evenodd"></path></g></svg>